<?xml version="1.0" standalone="no"?>
<!DOCTYPE svg PUBLIC "-//W3C//DTD SVG 20010904//EN"
 "http://www.w3.org/TR/2001/REC-SVG-20010904/DTD/svg10.dtd">
<svg version="1.0" xmlns="http://www.w3.org/2000/svg"
 width="260.000000pt" height="260.000000pt" viewBox="0 0 260.000000 260.000000"
 preserveAspectRatio="xMidYMid meet">

<g transform="translate(0.000000,260.000000) scale(0.100000,-0.100000)"
fill="#000000" stroke="none">
<path d="M510 1565 l0 -798 108 7 c302 19 455 5 550 -50 l42 -25 -2 753 -3
752 -54 38 c-108 76 -224 103 -478 114 l-163 7 0 -798z"/>
<path d="M1791 2349 c-156 -14 -267 -50 -358 -118 l-43 -31 0 -750 0 -751 43
25 c92 53 139 59 410 53 l247 -5 0 794 0 794 -102 -1 c-57 -1 -145 -5 -197
-10z"/>
<path d="M179 2064 l-24 -26 0 -830 0 -830 28 -24 28 -24 380 0 c423 0 391 5
504 -75 78 -55 134 -83 182 -91 51 -8 131 23 209 80 119 87 82 80 521 86 392
5 393 5 415 28 l23 23 0 828 0 829 -24 26 c-21 23 -33 26 -88 26 l-63 0 0
-690 c0 -763 1 -747 -63 -786 -29 -17 -58 -19 -342 -24 -350 -6 -345 -5 -414
-90 -48 -60 -86 -80 -151 -80 -65 0 -103 20 -151 80 -69 85 -64 84 -414 90
-285 5 -313 7 -342 25 -65 39 -63 11 -63 779 l0 696 -63 0 c-55 0 -67 -3 -88
-26z"/>
</g>
</svg>
